<svg width="64" height="60" viewBox="0 0 64 60" fill="none" xmlns="http://www.w3.org/2000/svg">
<path d="M63.9984 35.5701C64.0092 36.8503 63.7027 38.1133 63.1062 39.2462C62.507 40.3752 61.671 41.3615 60.6555 42.1376C59.5521 42.9814 58.3073 43.6219 56.9794 44.0294C55.4668 44.5036 53.8888 44.7358 52.3037 44.7174C51.5099 44.7156 50.7168 44.669 49.9282 44.5776C49.0791 44.4916 48.2407 44.3626 47.4237 44.2014C46.6068 44.0402 45.7899 43.8467 45.016 43.621C44.3285 43.4255 43.6596 43.1702 43.0167 42.8578L43.6402 40.2458C46.3705 41.4514 49.3191 42.0843 52.3037 42.1054C54.4903 42.1887 56.6514 41.6119 58.5058 40.4501C59.307 39.9379 59.9581 39.2223 60.3924 38.3763C60.8267 37.5303 61.0288 36.5842 60.978 35.6346C60.9999 34.7063 60.7616 33.7903 60.2901 32.9904C59.8197 32.2225 59.2154 31.5454 58.5058 30.9911C57.7336 30.3966 56.9056 29.8782 56.0335 29.4432C55.1091 28.9918 54.174 28.5511 53.2066 28.1426C51.9275 27.5944 50.7021 27.0677 49.5305 26.4551C48.4258 25.926 47.3869 25.2694 46.4348 24.4988C45.5737 23.8083 44.8452 22.9669 44.2851 22.0158C43.7424 21.0294 43.4716 19.9166 43.5004 18.7911C43.4439 17.6499 43.6681 16.5122 44.1535 15.4778C44.6389 14.4433 45.3705 13.5437 46.2844 12.8578C48.3786 11.3676 50.9068 10.6118 53.4753 10.708C56.6126 10.6393 59.7147 11.3796 62.4828 12.8578L61.7949 15.4052C60.4488 14.7598 59.0454 14.2416 57.6029 13.8574C56.2294 13.5082 54.8172 13.3348 53.4001 13.3415C51.5998 13.2245 49.8115 13.7085 48.3159 14.7173C47.7178 15.1884 47.2423 15.797 46.9298 16.4913C46.6172 17.1856 46.477 17.945 46.5208 18.7051C46.5029 19.5396 46.7188 20.3625 47.1443 21.0806C47.5815 21.7766 48.1556 22.3763 48.8318 22.8434C49.5892 23.3769 50.3954 23.8376 51.2396 24.2193C52.1317 24.6278 53.0561 25.0685 54.0235 25.5307C54.9909 25.9929 55.9153 26.4013 57.0869 26.9065C58.2334 27.4063 59.316 28.0414 60.3116 28.7983C61.3337 29.5616 62.208 30.505 62.8913 31.5823C63.6431 32.7743 64.0281 34.161 63.9984 35.5701Z" fill="#492A5B"/>
<path d="M24.518 10.7081C22.2341 10.7019 19.9726 11.1587 17.8702 12.0511C15.7678 12.9434 13.8681 14.2527 12.2859 15.8998L12.7373 19.5759C14.368 17.1765 16.6916 15.3314 19.3981 14.2867C22.1046 13.242 25.0653 13.0474 27.8852 13.7289C30.7051 14.4104 33.2502 15.9356 35.1809 18.101C37.1115 20.2664 38.336 22.969 38.691 25.8484C39.0459 28.7277 38.5144 31.6468 37.1674 34.2162C35.8204 36.7857 33.7219 38.8833 31.1519 40.2292C28.5819 41.5752 25.6626 42.1054 22.7835 41.7493C19.9043 41.3932 17.2022 40.1675 15.0376 38.236L15.5105 41.9336C18.2016 43.6386 21.3215 44.5443 24.5073 44.5455C28.9972 44.5455 33.3033 42.7619 36.4782 39.587C39.653 36.4121 41.4367 32.1061 41.4367 27.6161C41.4367 23.1261 39.653 18.8201 36.4782 15.6452C33.3033 12.4703 28.9972 10.6866 24.5073 10.6866L24.518 10.7081Z" fill="#492A5B"/>
<path d="M13.3608 58.9812C13.0609 58.9811 12.7713 58.8721 12.5458 58.6743C12.3204 58.4765 12.1745 58.2036 12.1354 57.9063L5.23468 1.34581C5.2063 1.02729 5.30246 0.710169 5.50297 0.461058C5.70348 0.211946 5.99272 0.0502322 6.30994 0.00988344C6.62717 -0.0304653 6.94768 0.0536916 7.20416 0.244677C7.46065 0.435662 7.63314 0.718612 7.6854 1.03409L14.6291 57.5838C14.6686 57.9087 14.5776 58.236 14.3761 58.494C14.1746 58.7519 13.8791 58.9194 13.5543 58.9597L13.3608 58.9812Z" fill="#FFC720"/>
<path d="M1.23611 59.7443C0.909145 59.7415 0.596363 59.6104 0.365152 59.3792C0.133942 59.148 0.00280676 58.8352 0 58.5082V2.61417C0 2.28633 0.130232 1.97192 0.362048 1.7401C0.593864 1.50829 0.908277 1.37805 1.23611 1.37805C1.56395 1.37805 1.87836 1.50829 2.11018 1.7401C2.34199 1.97192 2.47222 2.28633 2.47222 2.61417V58.5082C2.47222 58.836 2.34199 59.1505 2.11018 59.3823C1.87836 59.6141 1.56395 59.7443 1.23611 59.7443Z" fill="#FFC720"/>
</svg>
